<svg width="93" height="17" viewBox="0 0 93 17" fill="none" xmlns="http://www.w3.org/2000/svg">
<path d="M17.3839 0.494751H17.8797V16.8127H17.3839V0.494751ZM79.1688 2.42548C79.1688 2.42548 80.1604 2.61233 80.1604 3.7957V13.9477C80.1604 15.0065 79.1688 15.2556 79.1688 15.2556H83.1969V8.52906L88.3405 14.1968C88.3405 14.1968 89.0222 15.1933 90.5095 15.1933H92.4306V3.85796C92.4306 3.85796 92.5546 2.42547 91.2532 2.42547H88.3405C88.3405 2.42547 89.2701 2.6746 89.2701 3.73341V9.15201L83.3829 2.42544L79.1688 2.42548ZM64.4197 2.42548C64.4197 2.42548 65.4112 2.67462 65.4112 3.73342V10.5844C65.4112 10.5844 65.1633 15.4424 71.4844 15.4424C77.8054 15.4424 77.6195 10.8334 77.6195 10.8334V3.73327C77.6195 3.73327 77.6195 2.42533 76.442 2.42533H73.4674C73.4674 2.42533 74.459 2.61217 74.459 3.73327V10.7089C74.459 10.7089 74.5829 12.8888 72.0421 12.8888C72.0421 12.8888 69.8111 12.951 69.8111 10.5843V3.73327C69.8111 3.73327 69.7491 2.42533 68.6336 2.42533L64.4197 2.42548ZM60.5156 15.2557H65.5972C65.5972 15.2557 64.8535 15.0689 64.2958 13.6364C63.738 12.1417 60.7634 3.79575 60.7634 3.79575C60.7634 3.79575 60.4535 2.42553 59.338 2.42553H53.6986C53.6986 2.42553 54.8761 2.67467 54.5042 3.67118C54.3183 4.23173 53.2648 6.97218 52.3972 9.27666H51.0958C50.2282 9.27666 50.1043 9.89949 49.7944 10.7092C49.4846 11.5188 48.7409 12.1416 48.7409 12.1416C49.1747 11.8925 50.724 11.8925 50.724 11.8925H51.5296L51.2817 12.5776C51.2817 12.5776 50.538 14.5707 49.9183 15.1934H53.6365L54.8759 11.8924H55.6196C56.4872 11.8301 56.7971 11.3319 56.983 10.709C57.2309 10.0862 58.0365 9.08977 58.0365 9.08977C57.6027 9.21433 56.3633 9.21433 56.3633 9.21433H55.7436L57.045 5.72646L60.5156 15.2557ZM35.3559 2.42548C35.3559 2.42548 36.3474 2.67462 36.3474 3.67113V14.01C36.3474 14.9442 35.3559 15.2557 35.3559 15.2557H40.4375V4.66761H42.4826C42.4826 4.66761 44.4036 4.66761 44.4036 6.66064C44.4036 8.65366 42.6685 8.71595 42.6685 8.71595H40.8094C40.8094 8.71595 41.615 9.40105 42.6685 11.7055L43.722 14.01C43.722 14.01 44.4037 15.3179 45.2713 15.3179H49.2994C49.2994 15.3179 48.4318 15.0688 47.874 13.8231C47.3163 12.5775 47.4402 12.8266 46.7586 11.145C46.0149 9.33889 44.7755 9.40118 44.7755 9.40118C44.7755 9.40118 48.184 9.3389 48.184 5.78873C48.184 2.17627 43.0404 2.48773 43.0404 2.48773H35.3559V2.42548ZM9.94705 2.42548C13.1696 2.42548 13.2935 5.22815 13.2935 5.22815C13.2935 8.15539 10.8146 8.0931 10.8146 8.0931C14.409 8.0931 14.2851 11.4564 14.2851 11.4564C14.2851 15.4424 9.51335 15.2556 9.51335 15.2556H0.961304C0.961304 15.2556 1.95283 15.0064 1.95283 14.0722V3.67102C1.95283 2.73678 1.02327 2.42537 1.02327 2.42537L9.94705 2.42548ZM5.98093 4.60538V12.9512H8.39786C8.39786 12.9512 10.5049 12.9512 10.3809 11.1451C10.3809 11.1451 10.3809 9.6503 6.47678 7.96867H8.02605C8.02605 7.96867 9.69921 8.03096 9.69921 6.22482C9.69921 4.54325 7.90209 4.54325 7.90209 4.54325L5.98093 4.60538ZM29.9641 2.42548C33.1866 2.42548 33.3105 5.22815 33.3105 5.22815C33.3105 8.15539 30.8316 8.0931 30.8316 8.0931C34.426 8.0931 34.3021 11.4564 34.3021 11.4564C34.3021 15.4424 29.5304 15.2556 29.5304 15.2556H20.9163C20.9163 15.2556 21.9079 15.0064 21.9079 14.0722V3.67102C21.9079 2.73678 20.9783 2.42537 20.9783 2.42537L29.9641 2.42548ZM25.9979 4.60538V12.9512H28.4149C28.4149 12.9512 30.5219 12.9512 30.3979 11.1451C30.3979 11.1451 30.3979 9.6503 26.4938 7.96867H28.0431C28.0431 7.96867 29.7162 8.03096 29.7162 6.22482C29.7162 4.54325 27.9191 4.54325 27.9191 4.54325L25.9979 4.60538Z" fill="#535560"/>
</svg>
