<svg width="95" height="39" viewBox="0 0 95 39" fill="none" xmlns="http://www.w3.org/2000/svg">
<path d="M62.6807 25.0836C62.6029 24.8868 62.4367 24.815 62.2521 24.9258C62.0668 25.0372 58.5864 27.1291 58.5864 27.1291V25.2018C58.5864 24.9852 58.4502 24.9066 58.2552 24.9852L57.1243 25.3979C56.9685 25.4573 56.9096 25.5755 56.9096 25.7326V34.2081C56.9096 34.385 57.0268 34.5026 57.2022 34.5026H58.2938C58.4699 34.5026 58.5864 34.385 58.5864 34.2081V29.0163C58.5864 29.0163 62.6899 26.4615 62.8562 26.3613C63.0224 26.261 63.1076 26.1756 63.0316 25.9875C62.9488 25.7809 62.6807 25.0836 62.6807 25.0836Z" fill="#535560"/>
<path d="M5.20366 24.8229C2.5714 24.8229 0.388062 26.7311 0.388062 29.8383C0.388062 32.6709 2.22059 34.7362 5.30118 34.7362C6.70502 34.7362 8.10823 34.2444 9.16126 33.3002C9.29803 33.1826 9.29803 33.0248 9.20052 32.8875L8.67369 32.0615C8.57618 31.9037 8.42041 31.8839 8.26463 32.0021C7.30911 32.7105 6.33459 33.0644 5.30118 33.0644C3.33189 33.0644 2.25984 31.7663 2.12308 30.1335H9.18518C9.36549 30.1335 9.47343 30.0017 9.47343 29.8427V29.1701C9.47343 26.8096 7.87457 24.8229 5.20367 24.8229L5.20366 24.8229ZM2.24021 28.6584C2.61065 27.3015 3.66306 26.4755 5.14479 26.4755C6.76328 26.4755 7.62128 27.4389 7.69916 28.6584H2.24021Z" fill="#535560"/>
<path d="M20.0085 24.98L18.8972 25.3934C18.7408 25.4528 18.6825 25.5703 18.6825 25.7281V26.1408C18.0784 25.3148 16.8886 24.8229 15.6019 24.8229C13.0482 24.8229 10.8256 26.7509 10.8256 29.7796C10.8256 32.4544 12.541 34.7363 15.5044 34.7363C16.85 34.7363 18.1367 34.1268 18.6825 33.4381V38.1387C18.6825 38.3162 18.7997 38.4338 18.9751 38.4338H20.0667C20.2421 38.4338 20.3593 38.3163 20.3593 38.1387V25.1966C20.3593 24.98 20.2231 24.9021 20.0085 24.98L20.0085 24.98ZM15.6216 33.0644C13.9644 33.0644 12.541 31.9235 12.541 29.7598C12.541 27.596 13.9644 26.4755 15.6216 26.4755C17.3566 26.4755 18.7022 27.596 18.7022 29.7598C18.7022 31.9433 17.3566 33.0644 15.6216 33.0644Z" fill="#535560"/>
<path d="M30.1057 24.9816L28.9754 25.3943C28.8196 25.4537 28.7607 25.5712 28.7607 25.729V30.4493C28.7607 32.1212 27.6887 33.0653 26.2266 33.0653C24.7835 33.0653 23.809 32.1409 23.809 30.4493V25.1975C23.809 24.9816 23.6722 24.903 23.4778 24.9816L22.3469 25.3943C22.1905 25.4537 22.1322 25.5712 22.1322 25.729V30.5081C22.1322 33.3017 23.809 34.7372 25.9144 34.7372C26.9282 34.7372 28.0395 34.403 28.7607 33.3407V34.2063C28.7607 34.3832 28.8779 34.5014 29.0533 34.5014H30.1449C30.321 34.5014 30.4375 34.3832 30.4375 34.2063V25.2173C30.4375 24.9816 30.3013 24.903 30.1057 24.9816Z" fill="#535560"/>
<path d="M33.8306 21.5604L32.6604 21.9935C32.4856 22.0516 32.3881 22.1308 32.3881 22.327V23.7043C32.3881 23.9202 32.5047 24.0582 32.7193 23.9796L33.9085 23.5861C34.1035 23.5273 34.1814 23.4289 34.1814 23.2322V21.7967C34.1814 21.6191 34.0446 21.4818 33.8306 21.5604V21.5604Z" fill="#535560"/>
<path d="M33.7903 24.9816L32.6594 25.3949C32.503 25.4536 32.4448 25.5718 32.4448 25.729V34.2063C32.4448 34.3832 32.5619 34.5014 32.7373 34.5014H33.829C34.0044 34.5014 34.1215 34.3832 34.1215 34.2063V25.1981C34.1215 24.9816 33.9847 24.903 33.7903 24.9816V24.9816Z" fill="#535560"/>
<path d="M40.6534 24.8248C39.6396 24.8248 38.5283 25.1589 37.8071 26.2213V25.1985C37.8071 24.982 37.6709 24.9034 37.4759 24.982L36.345 25.3953C36.1892 25.4541 36.1303 25.5723 36.1303 25.7294V34.2067C36.1303 34.3837 36.2474 34.5018 36.4228 34.5018H37.5145C37.6899 34.5018 37.8071 34.3837 37.8071 34.2067V29.1127C37.8071 27.4408 38.8791 26.4967 40.3418 26.4967C41.7843 26.4967 42.7588 27.421 42.7588 29.1127V34.2067C42.7588 34.3837 42.876 34.5018 43.0514 34.5018H44.1436C44.319 34.5018 44.4362 34.3837 44.4362 34.2067V29.0539C44.4362 26.2609 42.7588 24.8248 40.6534 24.8248V24.8248Z" fill="#535560"/>
<path d="M50.6822 24.8248C47.8746 24.8248 45.8666 26.9291 45.8666 29.7815C45.8666 32.6333 47.8746 34.7376 50.6822 34.7376C53.4899 34.7376 55.4782 32.6333 55.4782 29.7815C55.4782 26.9291 53.4899 24.8248 50.6822 24.8248ZM50.6822 33.0856C48.7522 33.0856 47.5826 31.6303 47.5826 29.7815C47.5826 27.9321 48.7522 26.4769 50.6822 26.4769C52.5933 26.4769 53.7628 27.9321 53.7628 29.7815C53.7628 31.6303 52.5933 33.0856 50.6822 33.0856Z" fill="#535560"/>
<path d="M88.4217 24.0644L86.4626 22.9208C86.3465 22.8527 86.2033 22.8527 86.0872 22.9208L84.1281 24.0644C83.9619 24.1614 83.9619 24.4035 84.1281 24.5006L86.0872 25.6442C86.2033 25.7122 86.3465 25.7122 86.4626 25.6442L88.4217 24.5006C88.588 24.4035 88.588 24.1614 88.4217 24.0644Z" fill="#535560"/>
<path d="M93.2832 0.96544L82.6883 7.12324C82.3741 7.30575 82.1812 7.64334 82.1812 8.00889V20.3445C82.1822 20.8678 82.7547 21.1948 83.2044 20.9337L93.7993 14.7759C94.113 14.5934 94.2944 14.2558 94.2944 13.8903V1.55464C94.2939 1.03137 93.7329 0.704341 93.2832 0.96544Z" fill="#535560"/>
<path d="M84.5172 28.3954L82.556 27.2555C82.3898 27.1584 82.1812 27.2797 82.1812 27.4733L82.1817 29.7568C82.1817 29.8918 82.2507 30.0174 82.3668 30.0849L84.3279 31.2248C84.4947 31.3213 84.7023 31.2005 84.7028 31.0064L84.7049 28.7229C84.7049 28.5879 84.6333 28.4624 84.5172 28.3954Z" fill="#535560"/>
<path d="M77.0315 24.0379V24.0379L72.6219 21.4638C72.4911 21.3879 72.3301 21.3879 72.1994 21.4638L67.7903 24.0379C67.6031 24.1471 67.6031 24.4193 67.7903 24.529L72.1994 27.1026C72.3301 27.1791 72.4911 27.1791 72.6219 27.1026L77.0315 24.529C77.2187 24.4193 77.2187 24.1471 77.0315 24.0379Z" fill="#535560"/>
<path d="M78.7469 27.2021L75.8023 28.9132C75.715 28.9638 75.6616 29.0577 75.6616 29.1595V32.5876C75.6616 32.7332 75.8211 32.8239 75.9461 32.7511L78.8902 31.04C78.9775 30.9894 79.0282 30.8955 79.0282 30.7937V27.3656C79.0282 27.22 78.8719 27.1293 78.7469 27.2021Z" fill="#535560"/>
<path d="M78.6745 11.5234L71.3155 7.2461C71.0034 7.06465 70.6133 7.29146 70.6128 7.65542V16.2238C70.6128 16.4775 70.7388 16.7123 70.9568 16.8389L78.3158 21.1162C78.628 21.2976 79.0264 21.0703 79.0269 20.7069V12.1385C79.0269 11.8848 78.8925 11.65 78.6745 11.5234V11.5234Z" fill="#535560"/>
</svg>
