<svg width="47" height="32" viewBox="0 0 47 32" fill="none" xmlns="http://www.w3.org/2000/svg">
<path d="M7.4874 0.148193C3.5468 0.148193 0.348633 3.19407 0.348633 6.94702C0.348633 10.7 3.5468 13.7458 7.4874 13.7458C11.428 13.7458 14.6262 10.7 14.6262 6.94702C14.6262 4.02042 12.6821 1.52323 9.95701 0.565665L6.98643 5.63497H6.10974L9.2447 0.353202C8.68282 0.217682 8.09331 0.148193 7.4874 0.148193Z" fill="#535560"/>
<path fill-rule="evenodd" clip-rule="evenodd" d="M15.8779 0.503662H21.7642L18.6332 5.6326H19.5099L22.5157 0.503662H26.3982L23.2671 5.6326H24.1438L27.1496 0.503662H29.2787V13.3856H15.8779V0.503662Z" fill="#535560"/>
<path fill-rule="evenodd" clip-rule="evenodd" d="M30.4053 0.503662H40.1741L37.0431 5.6326H37.9198L40.9256 0.503662H46.0605L38.1702 13.2664L30.4053 0.503662Z" fill="#535560"/>
<path d="M46.0615 15.656H0.473572V16.3717H46.0615V15.656Z" fill="#535560"/>
<path d="M7.1126 18.7283C3.65594 18.7283 0.850525 21.5148 0.850525 24.9456C0.850525 28.3764 3.65594 31.1592 7.1126 31.1592C10.5693 31.1592 13.3747 28.3764 13.3747 24.9456C13.3747 21.5148 10.5693 18.7283 7.1126 18.7283ZM7.1126 20.5435C9.394 20.5435 11.2456 22.5207 11.2456 24.9568C11.2456 27.3929 9.394 29.3701 7.1126 29.3701C4.8312 29.3701 2.97963 27.3929 2.97963 24.9568C2.97963 22.5207 4.8312 20.5435 7.1126 20.5435Z" fill="#535560"/>
<path fill-rule="evenodd" clip-rule="evenodd" d="M16.3798 30.9216V19.1131L19.1356 19.113L22.5167 27.9397L26.0234 19.1131H28.7787V30.9216H26.9001V21.4987L23.2681 30.9216H21.8905L18.2584 21.4987V30.9216H16.3798Z" fill="#535560"/>
<path fill-rule="evenodd" clip-rule="evenodd" d="M37.2933 30.9215L31.5322 19.113H33.9118L38.2953 28.0589L42.6787 19.113H44.9331L39.0467 30.9215H37.2933Z" fill="#535560"/>
</svg>
